<?xml version="1.0" standalone="no"?>
 <!DOCTYPE svg PUBLIC "-//W3C//DTD SVG 1.1//EN" 
 "http://www.w3.org/Graphics/SVG/1.1/DTD/svg11.dtd"> 
<svg
  xmlns:svg="http://www.w3.org/2000/svg"
  xmlns="http://www.w3.org/2000/svg"
  xmlns:xlink="http://www.w3.org/1999/xlink"
  version="1.1"
  width="297.0022mm" height="210.0072mm" viewBox="0.0000 0.0000 297.0022 210.0072">
<title>SVG Image created as revxlp-Edge_Cuts.svg date 2023/12/30 12:05:57 </title>
  <desc>Image generated by PCBNEW </desc>
<g style="fill:#000000; fill-opacity:1.0000;stroke:#000000; stroke-opacity:1.0000;
stroke-linecap:round; stroke-linejoin:round;"
 transform="translate(0 0) scale(1 1)">
</g>
<g style="fill:#000000; fill-opacity:0.0; 
stroke:#000000; stroke-width:0.0000; stroke-opacity:1; 
stroke-linecap:round; stroke-linejoin:round;">
</g>
<g style="fill:#000000; fill-opacity:1.0000; 
stroke:#000000; stroke-width:0.0212; stroke-opacity:1; 
stroke-linecap:round; stroke-linejoin:round;">
</g>
<g style="fill:#FFFFFF; fill-opacity:1.0000; 
stroke:#FFFFFF; stroke-width:0.0212; stroke-opacity:1; 
stroke-linecap:round; stroke-linejoin:round;">
</g>
<g style="fill:#2F2D31; fill-opacity:1.0000; 
stroke:#2F2D31; stroke-width:0.0212; stroke-opacity:1; 
stroke-linecap:round; stroke-linejoin:round;">
</g>
<g style="fill:#2F2D31; fill-opacity:1.0000; 
stroke:#2F2D31; stroke-width:0.2000; stroke-opacity:1; 
stroke-linecap:round; stroke-linejoin:round;">
</g>
<g style="fill:#2F2D31; fill-opacity:0.0; 
stroke:#2F2D31; stroke-width:0.2000; stroke-opacity:1; 
stroke-linecap:round; stroke-linejoin:round;">
<path d="M52.7808 78.4612
L95.9748 88.3240
" />
<path d="M63.0481 29.5433
L52.0314 77.2618
" />
<path d="M96.7499 89.2983
L96.7499 104.5090
" />
<path d="M97.7499 105.5090
L111.9389 105.5090
" />
<path d="M99.3950 28.7683
L64.0225 28.7683
" />
<path d="M112.9132 106.2841
L113.8515 110.3482
" />
<path d="M114.6009 111.0976
L132.3450 115.1942
" />
<path d="M136.8440 115.7068
L169.8658 115.7068
" />
<path d="M141.3663 37.9320
L103.8941 29.2809
" />
<path d="M146.1546 21.6944
L142.5788 37.1827
" />
<path d="M174.3649 115.1942
L192.1089 111.0976
" />
<path d="M192.6982 31.4135
L147.3518 20.9445
" />
<path d="M192.8583 110.3482
L193.7966 106.2841
" />
<path d="M194.7710 105.5090
L208.9600 105.5090
" />
<path d="M202.8158 29.2809
L193.6143 31.4022
" />
<path d="M209.9600 104.5090
L209.9600 89.2983
" />
<path d="M210.7350 88.3240
L253.9290 78.4612
" />
<path d="M242.6874 28.7683
L207.3148 28.7683
" />
<path d="M254.6784 77.2618
L243.6617 29.5433
" />
<path d="M52.0314 77.2618 A1.0000 1.0000 0.0 0 0 52.7808 78.4612" />
<path d="M64.0225 28.7683 A1.0000 1.0000 0.0 0 0 63.0481 29.5433" />
<path d="M96.7499 89.2983 A1.0000 1.0000 0.0 0 0 95.9748 88.3240" />
<path d="M96.7499 104.5090 A1.0000 1.0000 0.0 0 0 97.7499 105.5090" />
<path d="M103.8941 29.2809 A20.0001 20.0001 0.0 0 0 99.3950 28.7683" />
<path d="M112.9132 106.2841 A1.0000 1.0000 0.0 0 0 111.9389 105.5090" />
<path d="M113.8515 110.3482 A1.0000 1.0000 0.0 0 0 114.6009 111.0976" />
<path d="M132.3450 115.1942 A20.0001 20.0001 0.0 0 0 136.8440 115.7068" />
<path d="M141.3663 37.9320 A1.0079 1.0079 0.0 0 0 142.5788 37.1827" />
<path d="M147.3518 20.9445 A0.9989 0.9989 0.0 0 0 146.1546 21.6944" />
<path d="M169.8658 115.7068 A20.0001 20.0001 0.0 0 0 174.3649 115.1942" />
<path d="M192.1089 111.0976 A0.9954 0.9954 0.0 0 0 192.8583 110.3482" />
<path d="M192.6982 31.4135 A2.0322 2.0322 0.0 0 0 193.6143 31.4022" />
<path d="M194.7710 105.5090 A1.0000 1.0000 0.0 0 0 193.7966 106.2841" />
<path d="M207.3148 28.7683 A19.9984 19.9984 0.0 0 0 202.8158 29.2809" />
<path d="M210.7350 88.3240 A1.0001 1.0001 0.0 0 0 209.9600 89.2983" />
<path d="M208.9600 105.5090 A1.0003 1.0003 0.0 0 0 209.9600 104.5090" />
<path d="M243.6617 29.5433 A0.9999 0.9999 0.0 0 0 242.6874 28.7683" />
<path d="M253.9290 78.4612 A1.0000 1.0000 0.0 0 0 254.6784 77.2618" />
<g >
</g>
<g >
</g>
<g >
</g>
<g >
</g>
<g >
</g>
<g >
</g>
<g >
</g>
<g >
</g>
<g >
</g>
<g >
</g>
<g >
</g>
<g >
</g>
<g >
</g>
<g >
</g>
<g >
</g>
<g >
</g>
<g >
</g>
<g >
</g>
<g >
</g>
<g >
</g>
<g >
</g>
<g >
</g>
<g >
</g>
<g >
</g>
<g >
</g>
<g >
</g>
<g >
</g>
<g >
</g>
<g >
</g>
<g >
</g>
<g >
</g>
<g >
</g>
<g >
</g>
<g >
</g>
<g >
</g>
<g >
</g>
<g >
</g>
<g >
</g>
<g >
</g>
<g >
</g>
<g >
</g>
<g >
</g>
<g >
</g>
<g >
</g>
<g >
</g>
<g >
</g>
<g >
</g>
<g >
</g>
<g >
</g>
<g >
</g>
<g >
</g>
<g >
</g>
<g >
</g>
<g >
</g>
<g >
</g>
<g >
</g>
<g >
</g>
<g >
</g>
<g >
</g>
<g >
</g>
<g >
</g>
<g >
</g>
<g >
</g>
<g >
</g>
<g >
</g>
<g >
</g>
<g >
</g>
<g >
</g>
<g >
</g>
<g >
</g>
<g >
</g>
<g >
</g>
<g >
</g>
<g >
</g>
<g >
</g>
<g >
</g>
<g >
</g>
<g >
</g>
<g >
</g>
<g >
</g>
<g >
</g>
<g >
</g>
<g >
</g>
<g >
</g>
<g >
</g>
<g >
</g>
<g >
</g>
<g >
</g>
<g >
</g>
<g >
</g>
<g >
</g>
<g >
</g>
<g >
</g>
<g >
</g>
<g >
</g>
<g >
</g>
<g >
</g>
<g >
</g>
<g >
</g>
<g >
</g>
<g >
</g>
<g >
</g>
<g >
</g>
<g >
</g>
<g >
</g>
<g >
</g>
<g >
</g>
<g >
</g>
<g >
</g>
<g >
</g>
<g >
</g>
<g >
</g>
<g >
</g>
<g >
</g>
<g >
</g>
<g >
</g>
<g >
</g>
<g >
</g>
<g >
</g>
<g >
</g>
<g >
</g>
<g >
</g>
<g >
</g>
<g >
</g>
<g >
</g>
<g >
</g>
<g >
</g>
<g >
</g>
<g >
</g>
<g >
</g>
<g >
</g>
<g >
</g>
<g >
</g>
<g >
</g>
<g >
</g>
<g >
</g>
<g >
</g>
<g >
</g>
<g >
</g>
<g >
</g>
<g >
</g>
<g >
</g>
<g >
</g>
<g >
</g>
<g >
</g>
<g >
</g>
<g >
</g>
<g >
</g>
<g >
</g>
<g >
</g>
<g >
</g>
<g >
</g>
<g >
</g>
<g >
</g>
<g >
</g>
<g >
</g>
<g >
</g>
<g >
</g>
<g >
</g>
<g >
</g>
<g >
</g>
<g >
</g>
<g >
</g>
<g >
</g>
<g >
</g>
<g >
</g>
<g >
</g>
<g >
</g>
<g >
</g>
<g >
</g>
<g >
</g>
<g >
</g>
<g >
</g>
<g >
</g>
<g >
</g>
<g >
</g>
<g >
</g>
<g >
</g>
<g >
</g>
<g >
</g>
<g >
</g>
<g >
</g>
<g >
</g>
<g >
</g>
<g >
</g>
<g >
</g>
<g >
</g>
<g >
</g>
<g >
</g>
<g >
</g>
<g >
</g>
<g >
</g>
<g >
</g>
<g >
</g>
<g >
</g>
</g> 
</svg>
